<svg t="1729342159733" class="icon" viewBox="0 0 1024 1024" version="1.1" xmlns="http://www.w3.org/2000/svg" p-id="1478" width="1280" height="1280"><path d="M512 64c-33.066667 0-63.786667 10.517333-85.290667 32.042667-10.304 10.304-17.728 22.912-23.04 36.672-9.621333-2.901333-19.328-5.909333-28.970666-5.717334-25.941333 0.512-49.749333 11.349333-68.117334 27.882667-25.450667 22.912-40.085333 58.624-38.250666 96.576-36.202667 2.474667-68.992 19.776-88.106667 47.829333-20.288 29.738667-23.466667 70.613333-6.890667 108.330667a118.058667 118.058667 0 0 0-37.418666 32.085333A144.128 144.128 0 0 0 106.666667 527.04c0 40.128 17.258667 80.277333 50.56 107.2 26.197333 21.226667 63.68 29.013333 104.896 27.008 6.165333 31.914667 18.304 61.653333 41.258666 83.328C333.994667 773.504 377.322667 789.333333 426.666667 789.333333v32c0 15.616-5.226667 43.562667-17.258667 63.36-12.010667 19.84-26.368 32.64-57.408 32.64a32 32 0 0 0 0 64h320a32 32 0 0 0 0-64c-31.04 0-45.397333-12.8-57.408-32.64-12.032-19.797333-17.258667-47.744-17.258667-63.36V789.333333c49.344 0 92.672-15.829333 123.306667-44.757333 22.933333-21.674667 35.072-51.413333 41.237333-83.328 41.216 1.984 78.72-5.781333 104.917334-27.008C900.053333 607.317333 917.333333 567.168 917.333333 527.04c0-30.848-9.813333-61.909333-29.248-87.338667a118.058667 118.058667 0 0 0-37.418666-32.085333c16.576-37.717333 13.397333-78.592-6.869334-108.330667-19.136-28.053333-51.925333-45.354667-88.128-47.829333 1.834667-37.952-12.8-73.664-38.250666-96.576-18.368-16.533333-42.176-27.370667-68.117334-27.882667-9.642667-0.192-19.349333 2.816-28.970666 5.717334-5.312-13.76-12.736-26.368-23.04-36.672C575.765333 74.517333 545.066667 64 512 64z m0 64c20.266667 0 32.213333 5.482667 40.042667 13.290667 7.808 7.808 13.290667 19.776 13.290666 40.042666a32 32 0 0 0 54.613334 22.613334c10.666667-10.645333 19.392-13.12 28.096-12.949334 8.704 0.170667 18.24 3.989333 26.538666 11.456 16.597333 14.933333 26.602667 40.981333 11.456 71.253334a32 32 0 0 0 39.893334 44.245333c29.930667-11.221333 53.077333 0.021333 64.938666 17.429333 11.861333 17.386667 15.210667 39.957333-13.504 68.650667A32 32 0 0 0 800 458.666667c16.042667 0 27.349333 6.954667 37.248 19.925333 9.898667 12.949333 16.085333 32.064 16.085333 48.448 0 21.76-9.408 43.434667-26.794666 57.493333-17.365333 14.08-43.178667 22.528-83.584 13.546667A32 32 0 0 0 704 629.333333c0 29.717333-9.92 52.352-27.306667 68.757334C659.349333 714.496 633.365333 725.333333 597.333333 725.333333v-32a32 32 0 1 0-64 0v128c0 26.88 6.229333 62.656 26.282667 96h-95.232c20.053333-33.344 26.282667-69.12 26.282667-96v-128a32 32 0 0 0-32.490667-32.448A32 32 0 0 0 426.666667 693.333333V725.333333c-36.010667 0-61.994667-10.837333-79.36-27.242666-17.386667-16.426667-27.306667-39.04-27.306667-68.757334a32 32 0 0 0-38.954667-31.253333c-40.405333 8.96-66.218667 0.533333-83.584-13.546667C180.053333 570.474667 170.666667 548.8 170.666667 527.04c0-16.384 6.186667-35.498667 16.085333-48.448 9.898667-12.970667 21.205333-19.925333 37.248-19.925333a32 32 0 0 0 22.613333-54.613334c-28.693333-28.714667-25.344-51.285333-13.482666-68.693333 11.861333-17.386667 35.008-28.629333 64.96-17.408a32 32 0 0 0 39.872-44.245333c-15.146667-30.272-5.12-56.32 11.456-71.253334 8.298667-7.466667 17.834667-11.285333 26.538666-11.456 8.704-0.170667 17.429333 2.304 28.074667 12.970667A32 32 0 0 0 458.666667 181.333333c0-20.266667 5.482667-32.213333 13.290666-40.042666C479.765333 133.482667 491.733333 128 512 128z" p-id="1479"></path></svg>